<svg width="127" height="32" viewBox="0 0 127 32" fill="none" xmlns="http://www.w3.org/2000/svg">
<path d="M11.8711 29.2559L19.6113 0H21.0596L12.585 32H11.1377L2.68262 0H4.13086L11.8711 29.2559ZM15.4609 32H14.0332L22.5068 0H23.916L15.4609 32ZM18.3379 32H16.9092L25.3633 0H26.792L18.3379 32ZM29.6875 0.0390625L33.4512 13.0244L36.9062 0H38.3545L29.8809 32H28.4326L24.6494 19.0342L21.2324 32H19.7852L28.2393 0.0390625L28.2207 0H29.6875V0.0390625ZM32.7568 32H31.3281L39.8018 0H41.2109L32.7568 32ZM35.8506 31.1748L35.5098 32H34.2041L42.6592 0H44.0869L35.8506 31.1748ZM25.3828 16.3096L29.1279 29.3721L29.8613 26.6084L26.0967 13.585L25.3828 16.3096ZM12.8359 22.1641L12.1797 24.9082L5.57812 0H7.00684L12.8359 22.1641ZM26.8115 10.8604L30.5752 23.8838L31.3086 21.1592L27.5449 8.11621L26.8115 10.8604ZM43.8867 11.7139L39.8682 21.4453L45.5352 0H46.9824L43.8867 11.7139ZM14.2842 16.8115L13.5693 19.4785L8.4541 0H9.86328L14.2842 16.8115ZM28.2393 5.44922L32.0234 18.4736L32.7373 15.7295L28.9922 2.66699L28.2393 5.44922ZM15.7314 11.2656L14.998 13.9707L11.3115 0H12.7588L15.7314 11.2656Z" fill="#F0E1FF"/>
<path d="M84.723 0H86.1128V32H84.723V0ZM81.9434 0H83.3332V32H81.9434V0ZM79.1638 0H80.5536V32H79.1638V0ZM76.3843 0H77.7741V32H76.3843V0Z" fill="url(#paint0_linear_80_274)"/>
<path d="M56.3604 22.6087L56.9202 21.2174H61.6686L62.2284 22.6087H56.3604ZM55.2794 25.3913L55.8199 24H62.7495L63.3479 25.3913H55.2794ZM54.1985 28.1739L54.739 26.7826H63.8498L64.4289 28.1739H54.1985ZM42.9065 32H41.4009L54.0441 0H55.5497L68.1736 32H66.6873L54.7969 1.8744L42.9065 32ZM54.9706 5.17874L55.762 6.95652L45.8791 32H44.3928L54.9706 5.17874ZM56.5148 8.85024L57.2483 10.7633L48.8903 32H47.3847L56.5148 8.85024ZM57.9818 12.6763L58.7153 14.628L51.8629 32H50.3766L57.9818 12.6763ZM77.1493 32H75.6437L63.0198 0H64.5061L77.1493 32ZM61.5142 0L74.1574 32H72.6711L60.0279 0H61.5142ZM58.5223 0L71.1655 32H69.6599L57.036 0H58.5223Z" fill="url(#paint1_linear_80_274)"/>
<path d="M1.59825 0H0L8.52402 32H10.1223L1.59825 0Z" fill="url(#paint2_linear_80_274)"/>
<path d="M125.402 0H127L114.214 32H112.616L125.402 0Z" fill="url(#paint3_linear_80_274)"/>
<path d="M102.717 32H101.211L90.7729 5.58008V1.77148L101.964 30.126L113.855 0H115.341L102.717 32ZM105.69 32H104.204L116.828 0H118.333L105.69 32ZM108.682 32H107.196L119.838 0H121.325L108.682 32ZM111.673 32H110.187L122.811 0H124.317L111.673 32ZM102.929 25.0439L102.138 26.8213L91.5601 0H93.0464L102.929 25.0439ZM104.416 21.2363L103.682 23.1494L94.5522 0H96.0581L104.416 21.2363ZM105.882 17.3721L105.149 19.3232L97.5444 0H99.0308L105.882 17.3721Z" fill="#F0E1FF"/>
<defs>
<linearGradient id="paint0_linear_80_274" x1="81.2485" y1="0" x2="81.2485" y2="32" gradientUnits="userSpaceOnUse">
<stop stop-color="#BA7EF4"/>
<stop offset="1" stop-color="#F444AC"/>
</linearGradient>
<linearGradient id="paint1_linear_80_274" x1="59.2751" y1="0" x2="59.2751" y2="32" gradientUnits="userSpaceOnUse">
<stop stop-color="#BA7EF4"/>
<stop offset="1" stop-color="#F444AC"/>
</linearGradient>
<linearGradient id="paint2_linear_80_274" x1="5.06114" y1="0" x2="5.06114" y2="32" gradientUnits="userSpaceOnUse">
<stop stop-color="#BA7EF4"/>
<stop offset="1" stop-color="#F444AC"/>
</linearGradient>
<linearGradient id="paint3_linear_80_274" x1="119.808" y1="0" x2="119.808" y2="32" gradientUnits="userSpaceOnUse">
<stop stop-color="#BA7EF4"/>
<stop offset="1" stop-color="#F444AC"/>
</linearGradient>
</defs>
</svg>
