<svg width="96" height="24" viewBox="0 0 96 24" fill="none" xmlns="http://www.w3.org/2000/svg">
<path d="M91.0669 24C90.5592 24 90.0184 23.9332 89.4445 23.7997C88.8707 23.6885 88.4071 23.5438 88.054 23.3658C87.8553 23.2545 87.756 23.0654 87.756 22.7983L87.6567 19.0598C87.6567 18.6815 87.8001 18.4923 88.0871 18.4923C88.3299 18.4923 88.4954 18.6704 88.5837 19.0264C88.9589 20.6064 89.4114 21.6857 89.9412 22.2643C90.493 22.8428 91.1551 23.1321 91.9277 23.1321C92.5678 23.1321 93.0975 22.8873 93.5169 22.3978C93.9363 21.8859 94.1459 21.185 94.1459 20.2949C94.1459 19.4047 93.9031 18.6147 93.4176 17.9249C92.932 17.235 92.1153 16.4784 90.9675 15.6551C89.8198 14.8762 88.981 14.0974 88.4513 13.3185C87.9215 12.5174 87.6567 11.6495 87.6567 10.7149C87.6567 9.44645 88.0981 8.42281 88.981 7.64395C89.8639 6.86509 91.0337 6.47566 92.4905 6.47566C92.932 6.47566 93.3624 6.53129 93.7818 6.64256C94.2011 6.73157 94.5764 6.88734 94.9074 7.10987C95.1061 7.24339 95.2054 7.42142 95.2054 7.64395L95.2716 11.3157C95.2716 11.6495 95.1392 11.8164 94.8743 11.8164C94.7198 11.8164 94.6095 11.7719 94.5432 11.6829C94.477 11.5716 94.4218 11.4381 94.3777 11.2823C93.9363 9.83588 93.4948 8.83449 93.0534 8.27816C92.6119 7.69958 92.0711 7.41029 91.431 7.41029C90.8572 7.41029 90.3826 7.61057 90.0074 8.01112C89.6321 8.41168 89.4445 8.91238 89.4445 9.51321C89.4445 10.2921 89.6763 10.9708 90.1398 11.5494C90.6033 12.128 91.4421 12.8401 92.6561 13.6857C93.7597 14.4868 94.5874 15.3547 95.1392 16.2893C95.7131 17.2017 96 18.2031 96 19.2935C96 20.7177 95.5475 21.8637 94.6426 22.7316C93.7376 23.5772 92.5457 24 91.0669 24Z" fill="#F0E1FF"/>
<path d="M81.3174 24C80.2579 24 79.3088 23.6439 78.4701 22.9318C77.6313 22.2197 76.9581 21.2184 76.4504 19.9277C75.9648 18.6147 75.722 17.1015 75.722 15.388C75.722 13.63 75.9759 12.0834 76.4835 10.7483C76.9912 9.41307 77.6865 8.36717 78.5694 7.61057C79.4523 6.85396 80.4345 6.47566 81.516 6.47566C82.8183 6.47566 83.8667 7.02086 84.6613 8.11126C85.478 9.17941 85.8864 10.9263 85.8864 13.3519C85.8864 14.0862 85.6105 14.4534 85.0587 14.4534H78.768C78.3266 14.4534 78.1059 14.7093 78.1059 15.2211C78.1059 17.58 78.448 19.3491 79.1322 20.5285C79.8165 21.7079 80.6883 22.2976 81.7478 22.2976C82.5865 22.2976 83.2708 21.9972 83.8005 21.3964C84.3303 20.7955 84.7607 19.783 85.0918 18.3588C85.158 18.114 85.3014 17.9917 85.5222 17.9917C85.787 17.9917 85.8864 18.2142 85.8202 18.6592C85.467 20.6398 84.9041 22.0306 84.1316 22.8317C83.3591 23.6106 82.421 24 81.3174 24ZM78.6687 13.6189H82.0127C83.0721 13.6189 83.6019 13.0626 83.6019 11.9499C83.6019 10.5035 83.4253 9.36856 83.0721 8.5452C82.719 7.72183 82.1892 7.31015 81.4829 7.31015C80.6221 7.31015 79.8937 7.81085 79.2978 8.81224C78.7239 9.81363 78.3487 11.2378 78.1721 13.0848C78.1279 13.4409 78.2935 13.6189 78.6687 13.6189Z" fill="#F0E1FF"/>
<path d="M68.774 24C68.5753 24 68.4318 23.8776 68.3436 23.6328L63.9401 8.91238C63.7856 8.37831 63.6311 8.03338 63.4766 7.87761C63.3442 7.72184 63.1234 7.61057 62.8144 7.54381L62.3178 7.44368C62.0309 7.37692 61.8874 7.23227 61.8874 7.00974C61.8874 6.78721 62.0419 6.67594 62.3509 6.67594H67.8138C68.1228 6.67594 68.2773 6.78721 68.2773 7.00974C68.2773 7.25452 68.1339 7.39917 67.8469 7.44368L67.3172 7.51043C66.7875 7.57719 66.4564 7.71071 66.3239 7.91099C66.1915 8.08902 66.1915 8.42281 66.3239 8.91238L69.0719 18.5591C69.1382 18.8039 69.2485 18.9263 69.403 18.9263C69.5575 18.9263 69.6679 18.8039 69.7341 18.5591L72.4159 9.51322C72.5925 8.91238 72.6366 8.46732 72.5483 8.17803C72.4821 7.86648 72.1731 7.66621 71.6213 7.57719L70.926 7.44368C70.6391 7.37692 70.4956 7.23227 70.4956 7.00974C70.4956 6.78721 70.6501 6.67594 70.9591 6.67594H75.1639C75.4729 6.67594 75.6274 6.79833 75.6274 7.04312C75.6274 7.26565 75.495 7.42142 75.2301 7.51043L74.9322 7.61057C74.6011 7.72184 74.3141 7.92212 74.0713 8.21141C73.8506 8.5007 73.6299 9.00139 73.4092 9.71349L69.2044 23.6328C69.1161 23.8776 68.9726 24 68.774 24Z" fill="#F0E1FF"/>
<path d="M53.6818 24C52.7548 24 51.9933 23.7107 51.3973 23.1321C50.8014 22.5313 50.5034 21.7413 50.5034 20.7622C50.5034 19.8053 50.8014 18.904 51.3973 18.0584C51.9933 17.1905 52.81 16.4117 53.8474 15.7218C54.8848 15.032 56.0656 14.4757 57.39 14.0528C57.6769 13.9638 57.8204 13.7747 57.8204 13.4854V10.4478C57.8204 9.37969 57.6549 8.62309 57.3238 8.17802C56.9927 7.71071 56.5402 7.47705 55.9663 7.47705C55.4145 7.47705 54.9069 7.73296 54.4433 8.24478C54.0019 8.73435 53.6818 9.56884 53.4832 10.7483C53.3728 11.4604 53.13 11.9833 52.7548 12.3171C52.4016 12.6286 52.0374 12.7844 51.6622 12.7844C51.0442 12.7844 50.7352 12.4729 50.7352 11.8498C50.7352 11.2044 50.9118 10.5702 51.2649 9.94715C51.6401 9.30181 52.1257 8.72322 52.7217 8.2114C53.3176 7.67733 53.9688 7.25452 54.6751 6.94297C55.3814 6.63143 56.0877 6.47566 56.794 6.47566C58.9792 6.47566 60.0718 7.75521 60.0718 10.3143V20.5285C60.0718 21.4631 60.3035 21.9305 60.7671 21.9305C61.054 21.9305 61.3189 21.7413 61.5617 21.363C61.8045 20.9624 61.9259 20.2949 61.9259 19.3602C61.9259 19.0042 62.0693 18.8261 62.3563 18.8261C62.6211 18.8261 62.7536 19.0153 62.7536 19.3936C62.7536 21.0181 62.4666 22.1975 61.8928 22.9318C61.3409 23.6439 60.7119 24 60.0056 24C59.4758 24 59.0565 23.7886 58.7474 23.3658C58.4384 22.9207 58.2287 22.3978 58.1184 21.7969C58.0963 21.5744 57.997 21.4631 57.8204 21.4631C57.6659 21.4409 57.5114 21.541 57.3569 21.7636C56.8271 22.4979 56.2864 23.0542 55.7346 23.4325C55.1828 23.8108 54.4985 24 53.6818 24ZM54.5758 22.4645C55.1496 22.4645 55.6794 22.2643 56.165 21.8637C56.6506 21.4409 57.0479 20.8846 57.3569 20.1947C57.6659 19.5049 57.8204 18.726 57.8204 17.8581V15.4214C57.8204 14.9986 57.5886 14.8762 57.1251 15.0542C55.7787 15.5438 54.7303 16.2225 53.9798 17.0904C53.2514 17.936 52.8872 18.9597 52.8872 20.1613C52.8872 21.6968 53.4501 22.4645 54.5758 22.4645Z" fill="#F0E1FF"/>
<path d="M36.5329 24C36.246 24 36.0473 23.7775 35.937 23.3324L31.9308 8.91238C31.7763 8.37831 31.6218 8.03338 31.4673 7.87761C31.3349 7.72184 31.1142 7.61057 30.8052 7.54381L30.3085 7.44368C30.0216 7.37692 29.8781 7.23227 29.8781 7.00974C29.8781 6.78721 30.0326 6.67594 30.3416 6.67594H35.7052C36.0142 6.67594 36.1687 6.78721 36.1687 7.00974C36.1687 7.25452 36.0253 7.39917 35.7383 7.44368L35.2086 7.51043C34.6788 7.57719 34.3478 7.71071 34.2153 7.91099C34.0829 8.08902 34.0829 8.42281 34.2153 8.91238L36.8309 18.6259C36.8971 18.8484 36.9964 18.9597 37.1289 18.9597C37.2834 18.9597 37.3937 18.8484 37.46 18.6259L39.7113 9.98053C39.7555 9.80251 39.7776 9.62448 39.7776 9.44646C39.7996 9.26843 39.7776 9.07928 39.7113 8.879C39.5568 8.34493 39.4023 8.01113 39.2478 7.87761C39.1154 7.72184 38.8947 7.61057 38.5857 7.54381L38.089 7.44368C37.8021 7.37692 37.6586 7.23227 37.6586 7.00974C37.6586 6.78721 37.8131 6.67594 38.1221 6.67594H43.4857C43.7947 6.67594 43.9492 6.78721 43.9492 7.00974C43.9492 7.25452 43.8058 7.39917 43.5188 7.44368L42.9891 7.51043C42.4594 7.57719 42.1393 7.71071 42.0289 7.91099C41.9186 8.08902 41.9075 8.42281 41.9958 8.91238L44.1148 18.5591C44.1589 18.7816 44.2472 18.8929 44.3796 18.8929C44.5342 18.8929 44.6445 18.7816 44.7107 18.5591L47.227 9.51322C47.4036 8.91238 47.4477 8.46732 47.3594 8.17803C47.2932 7.86648 46.9842 7.66621 46.4324 7.57719L45.7371 7.44368C45.4502 7.37692 45.3067 7.23227 45.3067 7.00974C45.3067 6.78721 45.4612 6.67594 45.7702 6.67594H49.9088C50.2178 6.67594 50.3723 6.79833 50.3723 7.04312C50.3723 7.26565 50.2399 7.42142 49.975 7.51043L49.677 7.61057C49.3459 7.72184 49.059 7.92212 48.8162 8.21141C48.5734 8.5007 48.3527 9.00139 48.154 9.71349L44.3796 23.3324C44.2693 23.7775 44.0596 24 43.7506 24C43.4857 24 43.2981 23.7775 43.1877 23.3324L40.6053 12.6509C40.5391 12.4061 40.4287 12.2837 40.2742 12.2837C40.1418 12.2615 40.0424 12.3839 39.9762 12.6509L37.1289 23.3324C37.0185 23.7775 36.8199 24 36.5329 24Z" fill="#F0E1FF"/>
<path d="M24.8999 8.81224C25.8048 7.25452 26.8974 6.47566 28.1776 6.47566C28.906 6.47566 29.4468 6.69819 29.7999 7.14325C30.1531 7.56606 30.3297 8.0445 30.3297 8.57858C30.3297 9.00139 30.2193 9.34631 29.9986 9.61335C29.7999 9.88039 29.4799 10.0139 29.0384 10.0139C28.6853 10.0139 28.4204 9.93602 28.2438 9.78025C28.0893 9.60222 27.9569 9.40194 27.8465 9.17941C27.7582 8.95688 27.6479 8.76773 27.5155 8.61196C27.383 8.43393 27.1623 8.34492 26.8533 8.34492C26.456 8.34492 26.0807 8.58971 25.7276 9.07927C25.3744 9.54659 25.0765 10.1808 24.8337 10.9819C24.6129 11.783 24.5026 12.6954 24.5026 13.7191V21.4631C24.5026 21.9305 24.5688 22.2643 24.7012 22.4645C24.8557 22.6648 25.1647 22.7872 25.6283 22.8317L26.5222 22.9318C26.765 22.9764 26.8864 23.0987 26.8864 23.299C26.8864 23.5661 26.7208 23.6996 26.3898 23.6996H20.7944C20.4633 23.6996 20.2978 23.5772 20.2978 23.3324C20.2978 23.1321 20.4413 22.9986 20.7282 22.9318L21.1255 22.8651C21.589 22.7761 21.887 22.6426 22.0194 22.4645C22.1739 22.2643 22.2512 21.9305 22.2512 21.4631V10.2476C22.2512 9.84701 22.185 9.57997 22.0525 9.44645C21.9422 9.29068 21.7325 9.19054 21.4235 9.14603L20.7282 9.0459C20.4413 9.02364 20.2978 8.90125 20.2978 8.67872C20.2978 8.50069 20.4744 8.3783 20.8275 8.31154C21.5118 8.20028 22.0305 8.02225 22.3836 7.77747C22.7589 7.53268 23.1451 7.23226 23.5424 6.87622C23.7411 6.67594 23.9066 6.5758 24.0391 6.5758C24.2377 6.5758 24.337 6.70932 24.337 6.97635V8.77886C24.337 8.93463 24.4032 9.03477 24.5357 9.07927C24.6681 9.10153 24.7895 9.01252 24.8999 8.81224Z" fill="#F0E1FF"/>
<path d="M16.2038 3.50487C15.7403 3.50487 15.3429 3.33797 15.0119 3.00417C14.7029 2.67038 14.5483 2.24757 14.5483 1.73574C14.5483 1.22392 14.7029 0.812239 15.0119 0.500695C15.3429 0.166898 15.7403 0 16.2038 0C16.6673 0 17.0536 0.166898 17.3626 0.500695C17.6716 0.812239 17.8261 1.22392 17.8261 1.73574C17.8261 2.24757 17.6716 2.67038 17.3626 3.00417C17.0536 3.33797 16.6673 3.50487 16.2038 3.50487ZM13.4227 23.6996C13.0916 23.6996 12.926 23.5772 12.926 23.3324C12.926 23.1321 13.0695 22.9986 13.3564 22.9318L13.7537 22.8651C14.3055 22.7761 14.6587 22.6426 14.8132 22.4645C14.9677 22.2643 15.045 21.9305 15.045 21.4631V10.2476C15.045 9.84701 14.9788 9.57997 14.8463 9.44645C14.736 9.29068 14.5263 9.19054 14.2173 9.14604L13.522 9.0459C13.235 9.02364 13.0916 8.90125 13.0916 8.67872C13.0916 8.50069 13.2681 8.3783 13.6213 8.31154C14.3055 8.20028 14.8574 8.02225 15.2767 7.77747C15.6961 7.53268 16.1044 7.23227 16.5017 6.87622C16.7004 6.67594 16.8659 6.5758 16.9984 6.5758C17.197 6.5758 17.2964 6.70932 17.2964 6.97635V21.4631C17.2964 21.9305 17.3626 22.2643 17.495 22.4645C17.6274 22.6648 17.8813 22.7872 18.2565 22.8317L19.0842 22.9318C19.327 22.9764 19.4484 23.0987 19.4484 23.299C19.4484 23.5661 19.2829 23.6996 18.9518 23.6996H13.4227Z" fill="url(#paint0_linear_70_223)"/>
<path d="M3.17842 24C2.25138 24 1.48988 23.7107 0.89393 23.1321C0.297977 22.5313 0 21.7413 0 20.7622C0 19.8053 0.297977 18.904 0.89393 18.0584C1.48988 17.1905 2.30656 16.4117 3.34396 15.7218C4.38136 15.032 5.56223 14.4757 6.88657 14.0528C7.17351 13.9638 7.31698 13.7747 7.31698 13.4854V10.4478C7.31698 9.37969 7.15144 8.62309 6.82036 8.17802C6.48927 7.71071 6.03679 7.47705 5.46291 7.47705C4.9111 7.47705 4.40343 7.73296 3.93991 8.24478C3.49847 8.73435 3.17842 9.56884 2.97977 10.7483C2.86941 11.4604 2.62661 11.9833 2.25138 12.3171C1.89822 12.6286 1.53403 12.7844 1.1588 12.7844C0.540773 12.7844 0.23176 12.4729 0.23176 11.8498C0.23176 11.2044 0.408339 10.5702 0.761496 9.94715C1.13673 9.30181 1.62232 8.72322 2.21827 8.2114C2.81422 7.67733 3.46536 7.25452 4.17167 6.94297C4.87799 6.63143 5.58431 6.47566 6.29062 6.47566C8.47578 6.47566 9.56837 7.75521 9.56837 10.3143V20.5285C9.56837 21.4631 9.80013 21.9305 10.2636 21.9305C10.5506 21.9305 10.8155 21.7413 11.0582 21.363C11.301 20.9624 11.4224 20.2949 11.4224 19.3602C11.4224 19.0042 11.5659 18.8261 11.8529 18.8261C12.1177 18.8261 12.2502 19.0153 12.2502 19.3936C12.2502 21.0181 11.9632 22.1975 11.3893 22.9318C10.8375 23.6439 10.2085 24 9.50215 24C8.97241 24 8.55304 23.7886 8.24402 23.3658C7.93501 22.9207 7.72532 22.3978 7.61496 21.7969C7.59289 21.5744 7.49356 21.4631 7.31698 21.4631C7.16248 21.4409 7.00797 21.541 6.85347 21.7636C6.32373 22.4979 5.78296 23.0542 5.23115 23.4325C4.67934 23.8108 3.9951 24 3.17842 24ZM4.07235 22.4645C4.64623 22.4645 5.17597 22.2643 5.66156 21.8637C6.14715 21.4409 6.54445 20.8846 6.85347 20.1947C7.16248 19.5049 7.31698 18.726 7.31698 17.8581V15.4214C7.31698 14.9986 7.08523 14.8762 6.62171 15.0542C5.27529 15.5438 4.22686 16.2225 3.4764 17.0904C2.74801 17.936 2.38381 18.9597 2.38381 20.1613C2.38381 21.6968 2.94666 22.4645 4.07235 22.4645Z" fill="url(#paint1_linear_70_223)"/>
<defs>
<linearGradient id="paint0_linear_70_223" x1="16.1872" y1="0" x2="16.1872" y2="23.6996" gradientUnits="userSpaceOnUse">
<stop stop-color="#BA7EF4"/>
<stop offset="1" stop-color="#F444AC"/>
</linearGradient>
<linearGradient id="paint1_linear_70_223" x1="6.12508" y1="6.47566" x2="6.12508" y2="24" gradientUnits="userSpaceOnUse">
<stop stop-color="#BA7EF4"/>
<stop offset="1" stop-color="#F444AC"/>
</linearGradient>
</defs>
</svg>
