<svg width="16" height="16" viewBox="0 0 16 16" fill="none" xmlns="http://www.w3.org/2000/svg">
<path d="M15.4238 13.8329C15.6352 14.0443 15.7539 14.3309 15.7539 14.6298C15.7539 14.9287 15.6352 15.2153 15.4238 15.4267C15.2125 15.638 14.9258 15.7567 14.627 15.7567C14.3281 15.7567 14.0414 15.638 13.8301 15.4267L7.87789 9.4726L1.92383 15.4248C1.71248 15.6361 1.42584 15.7549 1.12695 15.7549C0.828065 15.7549 0.541421 15.6361 0.330077 15.4248C0.118732 15.2134 4.45375e-09 14.9268 0 14.6279C-4.45375e-09 14.329 0.118732 14.0424 0.330077 13.831L6.28414 7.87885L0.331951 1.92478C0.120607 1.71344 0.00187504 1.42679 0.00187504 1.12791C0.00187505 0.829022 0.120607 0.542377 0.331951 0.331033C0.543296 0.119689 0.82994 0.000956419 1.12883 0.000956416C1.42771 0.000956413 1.71436 0.119689 1.9257 0.331033L7.87789 6.2851L13.832 0.330095C14.0433 0.118751 14.3299 1.90685e-05 14.6288 1.90735e-05C14.9277 1.90785e-05 15.2144 0.118751 15.4257 0.330095C15.637 0.54144 15.7558 0.828084 15.7558 1.12697C15.7558 1.42586 15.637 1.7125 15.4257 1.92385L9.47164 7.87885L15.4238 13.8329Z" fill="#F0E1FF"/>
</svg>
