<svg width="21" height="21" viewBox="0 0 21 21" fill="none" xmlns="http://www.w3.org/2000/svg">
<path d="M8.53697 2.84729C8.49821 2.80851 8.45142 2.77871 8.39989 2.75998C8.34837 2.74124 8.29336 2.73404 8.23875 2.73886C8.18413 2.74369 8.13124 2.76043 8.0838 2.78791C8.03636 2.81539 7.99552 2.85294 7.96416 2.89791C7.17308 4.02699 6.74915 5.37241 6.7501 6.75104C6.75078 7.04638 6.77051 7.34136 6.80916 7.63416L0.292598 16.5217C0.0793023 16.8101 -0.0230166 17.1658 0.00435484 17.5235C0.0317263 17.8812 0.186958 18.2171 0.44166 18.4698L1.78135 19.8095C2.03402 20.0642 2.36993 20.2194 2.72765 20.2468C3.08537 20.2742 3.44099 20.1718 3.72947 19.9585L12.6179 13.4401C12.9104 13.4793 13.205 13.4997 13.5001 13.501C14.8782 13.5023 16.2233 13.0791 17.3523 12.2889C17.3973 12.2575 17.4348 12.2167 17.4623 12.1692C17.4898 12.1218 17.5065 12.0689 17.5113 12.0143C17.5162 11.9597 17.509 11.9046 17.4902 11.8531C17.4715 11.8016 17.4417 11.7548 17.4029 11.716L8.53697 2.84729ZM8.78166 12.5298L7.28166 14.0298C7.21271 14.1024 7.12993 14.1604 7.03819 14.2005C6.94646 14.2406 6.84763 14.2619 6.74753 14.2631C6.64743 14.2644 6.54809 14.2457 6.45536 14.2079C6.36262 14.1702 6.27838 14.1143 6.2076 14.0435C6.13681 13.9728 6.08091 13.8885 6.04319 13.7958C6.00548 13.7031 5.98671 13.6037 5.98799 13.5036C5.98927 13.4035 6.01058 13.3047 6.05066 13.2129C6.09073 13.1212 6.14877 13.0384 6.22135 12.9695L7.72135 11.4695C7.86314 11.3348 8.05196 11.2608 8.24753 11.2633C8.4431 11.2658 8.62996 11.3446 8.76826 11.4829C8.90656 11.6212 8.98536 11.808 8.98786 12.0036C8.99037 12.1992 8.91638 12.388 8.78166 12.5298ZM19.0379 10.6023C19.0066 10.6474 18.9657 10.6851 18.9182 10.7127C18.8706 10.7403 18.8176 10.7571 18.7629 10.7619C18.7081 10.7667 18.653 10.7595 18.6014 10.7406C18.5498 10.7218 18.5029 10.6919 18.4642 10.6529L9.59822 1.78698C9.55928 1.74821 9.52933 1.70136 9.5105 1.64974C9.49167 1.59812 9.48441 1.54299 9.48924 1.48825C9.49407 1.43352 9.51087 1.38051 9.53845 1.33298C9.56603 1.28546 9.60372 1.24458 9.64885 1.21323C10.9475 0.307082 12.5235 -0.113161 14.1009 0.0261376C15.6783 0.165437 17.1563 0.855392 18.276 1.9751C19.3957 3.09481 20.0857 4.57285 20.225 6.15022C20.3643 7.72759 19.9441 9.30367 19.0379 10.6023Z" fill="#F0E1FF"/>
</svg>
