<svg width="20" height="16" viewBox="0 0 20 16" fill="none" xmlns="http://www.w3.org/2000/svg">
<path d="M19.7828 12.576C19.8516 12.6436 19.9063 12.7238 19.9435 12.8121C19.9808 12.9003 20 12.995 20 13.0905C20 13.1861 19.9808 13.2807 19.9435 13.369C19.9063 13.4573 19.8516 13.5375 19.7828 13.6051L17.5606 15.7867C17.457 15.8885 17.325 15.9579 17.1812 15.986C17.0374 16.0141 16.8884 15.9997 16.753 15.9446C16.6176 15.8895 16.5019 15.7962 16.4205 15.6765C16.3391 15.5568 16.2957 15.4161 16.2958 15.2722V13.8178C15.2497 13.8033 14.2217 13.5479 13.2946 13.072C12.3674 12.5961 11.5671 11.9131 10.958 11.078L7.09516 5.76925C6.615 5.11027 5.98182 4.5731 5.24807 4.20224C4.51432 3.83138 3.70112 3.6375 2.87584 3.63668H0.740719C0.544268 3.63668 0.355863 3.56006 0.216952 3.42368C0.0780398 3.2873 0 3.10233 0 2.90946C0 2.71658 0.0780398 2.53161 0.216952 2.39523C0.355863 2.25885 0.544268 2.18223 0.740719 2.18223H2.87584C3.93682 2.1831 4.98232 2.43216 5.92571 2.90878C6.86911 3.3854 7.68325 4.07585 8.30068 4.92295L12.1635 10.2317C12.635 10.879 13.2544 11.4089 13.9719 11.7791C14.6895 12.1492 15.4854 12.3493 16.2958 12.3633V10.9089C16.2957 10.765 16.3391 10.6243 16.4205 10.5046C16.5019 10.3849 16.6176 10.2916 16.753 10.2365C16.8884 10.1814 17.0374 10.167 17.1812 10.1951C17.325 10.2232 17.457 10.2926 17.5606 10.3944L19.7828 12.576ZM11.0182 6.09105C11.0974 6.14656 11.1869 6.18622 11.2816 6.20776C11.3764 6.22931 11.4746 6.23232 11.5705 6.21662C11.6665 6.20092 11.7583 6.16681 11.8409 6.11626C11.9234 6.0657 11.995 5.99968 12.0515 5.92197L12.1626 5.77016C12.634 5.12238 13.2534 4.592 13.9711 4.22152C14.6889 3.85103 15.485 3.65073 16.2958 3.63668V5.09112C16.2957 5.23503 16.3391 5.37574 16.4205 5.49544C16.5019 5.61513 16.6176 5.70843 16.753 5.76352C16.8884 5.81861 17.0374 5.83301 17.1812 5.80491C17.325 5.7768 17.457 5.70745 17.5606 5.60563L19.7828 3.42396C19.8516 3.35643 19.9063 3.27622 19.9435 3.18794C19.9808 3.09965 20 3.00502 20 2.90946C20 2.81389 19.9808 2.71926 19.9435 2.63097C19.9063 2.54269 19.8516 2.46249 19.7828 2.39495L17.5606 0.213285C17.457 0.111466 17.325 0.0421124 17.1812 0.014005C17.0374 -0.0141024 16.8884 0.000299974 16.753 0.0553887C16.6176 0.110478 16.5019 0.203776 16.4205 0.323472C16.3391 0.443168 16.2957 0.58388 16.2958 0.727793V2.18223C15.2497 2.19666 14.2217 2.4521 13.2946 2.92799C12.3674 3.40388 11.5671 4.0869 10.958 4.92204L10.8469 5.07385C10.7899 5.15159 10.7491 5.23964 10.7268 5.33292C10.7046 5.4262 10.7013 5.52288 10.7172 5.6174C10.7331 5.71192 10.7679 5.80242 10.8196 5.88371C10.8712 5.96499 10.9387 6.03545 11.0182 6.09105ZM8.2405 9.90895C8.16135 9.85344 8.07183 9.81378 7.97706 9.79224C7.88229 9.77069 7.78413 9.76768 7.68818 9.78338C7.59223 9.79908 7.50037 9.83319 7.41784 9.88374C7.33531 9.9343 7.26374 10.0003 7.2072 10.078L7.09609 10.2298C6.61594 10.8891 5.98265 11.4265 5.24872 11.7976C4.51479 12.1686 3.70136 12.3625 2.87584 12.3633H0.740719C0.544268 12.3633 0.355863 12.4399 0.216952 12.5763C0.0780398 12.7127 0 12.8977 0 13.0905C0 13.2834 0.0780398 13.4684 0.216952 13.6048C0.355863 13.7411 0.544268 13.8178 0.740719 13.8178H2.87584C3.93682 13.8169 4.98232 13.5678 5.92571 13.0912C6.86911 12.6146 7.68325 11.9241 8.30068 11.0771L8.41179 10.9252C8.46867 10.8475 8.50936 10.7596 8.53154 10.6664C8.55372 10.5732 8.55694 10.4766 8.54103 10.3822C8.52511 10.2878 8.49038 10.1974 8.43881 10.1162C8.38723 10.035 8.31985 9.96454 8.2405 9.90895Z" fill="#F0E1FF"/>
</svg>
