<svg width="100" height="16" viewBox="0 0 100 16" fill="none" xmlns="http://www.w3.org/2000/svg">
<path d="M95.6968 16C94.3275 16 93.2177 15.6825 92.3673 15.0474C91.5313 14.3978 91.0629 13.5101 90.962 12.3843H92.8429C92.9294 12.9761 93.2177 13.4596 93.7077 13.8349C94.2122 14.2102 94.8896 14.3978 95.74 14.3978C96.5472 14.3978 97.1454 14.2246 97.5345 13.8782C97.9381 13.5318 98.1399 13.1349 98.1399 12.6874C98.1399 12.0812 97.9021 11.6698 97.4264 11.4533C96.9508 11.2224 96.2373 11.0492 95.286 10.9337C94.1473 10.8038 93.2033 10.4935 92.4538 10.0027C91.7043 9.51195 91.3295 8.77582 91.3295 7.79431C91.3295 6.91384 91.6971 6.18493 92.4321 5.60757C93.1672 5.03022 94.169 4.74154 95.4374 4.74154C96.6913 4.74154 97.6787 5.03022 98.3993 5.60757C99.12 6.1705 99.5308 6.9788 99.6317 8.03247H97.8372C97.794 7.51285 97.5417 7.10149 97.0805 6.79837C96.6337 6.48083 96.0715 6.32205 95.3941 6.32205C94.6879 6.32205 94.1401 6.45918 93.751 6.73342C93.3618 6.99323 93.1672 7.33964 93.1672 7.77266C93.1672 8.20568 93.3834 8.56653 93.8158 8.85521C94.2627 9.12945 94.9617 9.30988 95.913 9.39648C96.6625 9.48308 97.3471 9.62742 97.9669 9.8295C98.5867 10.0316 99.0768 10.3491 99.4371 10.7821C99.8118 11.2152 99.9992 11.8214 99.9992 12.6008C100.014 13.2503 99.8335 13.8349 99.4587 14.3545C99.0984 14.8597 98.5939 15.2639 97.9453 15.567C97.2967 15.8557 96.5472 16 95.6968 16Z" fill="#F0E1FF"/>
<path d="M82.7331 16C81.7242 16 80.8306 15.7691 80.0522 15.3072C79.2883 14.8309 78.683 14.1741 78.2361 13.3369C77.7893 12.4853 77.5659 11.4966 77.5659 10.3708C77.5659 9.24492 77.7821 8.26342 78.2145 7.42625C78.6613 6.57465 79.2739 5.9179 80.0522 5.45602C80.8306 4.9797 81.7386 4.74154 82.7764 4.74154C83.8142 4.74154 84.7006 4.9797 85.4357 5.45602C86.1708 5.9179 86.7329 6.53135 87.1221 7.29634C87.5112 8.06134 87.7058 8.88407 87.7058 9.76454C87.7058 9.92332 87.6986 10.0821 87.6842 10.2409C87.6842 10.3996 87.6842 10.5801 87.6842 10.7821H79.3604C79.4036 11.576 79.5838 12.24 79.9009 12.774C80.2324 13.2936 80.6432 13.6834 81.1333 13.9432C81.6377 14.203 82.171 14.3329 82.7331 14.3329C83.5259 14.3329 84.1457 14.1669 84.5925 13.8349C85.0393 13.5029 85.378 13.041 85.6086 12.4493H87.4031C87.1581 13.4452 86.6464 14.2896 85.8681 14.9824C85.0898 15.6608 84.0448 16 82.7331 16ZM82.7331 6.36536C81.8972 6.36536 81.1621 6.61795 80.5279 7.12314C79.9081 7.62832 79.5261 8.33559 79.382 9.24492H85.9113C85.8537 8.35002 85.5294 7.64997 84.9384 7.14479C84.3619 6.62517 83.6268 6.36536 82.7331 6.36536Z" fill="#F0E1FF"/>
<path d="M68.6019 15.7402L63.8887 5.00135H65.9643L69.6613 13.7483L73.38 5.00135H75.4339L70.6991 15.7402H68.6019Z" fill="#F0E1FF"/>
<path d="M55.7896 16C54.9392 16 54.2329 15.8484 53.6708 15.5453C53.1087 15.2422 52.6907 14.8453 52.4168 14.3545C52.143 13.8493 52.006 13.3009 52.006 12.7091C52.006 11.6121 52.4024 10.7821 53.1952 10.2192C54.0023 9.64186 55.0761 9.35318 56.4166 9.35318H59.3569V9.13667C59.3569 7.26026 58.4993 6.32205 56.7841 6.32205C56.0923 6.32205 55.5085 6.47361 55.0329 6.77672C54.5716 7.07983 54.2762 7.55615 54.1464 8.20568H52.2871C52.3592 7.48398 52.597 6.86333 53.0006 6.3437C53.4186 5.82408 53.9519 5.42715 54.6005 5.15291C55.2491 4.87866 55.977 4.74154 56.7841 4.74154C58.3119 4.74154 59.4218 5.14569 60.1136 5.95399C60.8199 6.74785 61.173 7.80875 61.173 9.13667V15.7402H59.6164L59.465 14.0731H59.3137C58.9966 14.5927 58.5714 15.0474 58.0381 15.4371C57.5192 15.8124 56.7697 16 55.7896 16ZM56.1139 14.3978C56.8057 14.3978 57.3895 14.2318 57.8651 13.8999C58.3552 13.5679 58.7227 13.1276 58.9678 12.5792C59.2272 12.0307 59.3569 11.4317 59.3569 10.7821H56.5679C55.5878 10.7821 54.8959 10.9481 54.4924 11.2801C54.1032 11.6121 53.9086 12.0523 53.9086 12.6008C53.9086 13.1637 54.096 13.604 54.4707 13.9215C54.8455 14.2391 55.3932 14.3978 56.1139 14.3978Z" fill="#F0E1FF"/>
<path d="M39.9288 15.7402L37.5505 5.00135H39.345L40.8801 13.0338L42.7178 5.00135H44.7501L46.5878 13.0338L48.1228 5.00135H49.9389L47.5391 15.7402H45.6797L43.7339 7.4046L41.7881 15.7402H39.9288Z" fill="#F0E1FF"/>
<path d="M26.1003 15.7402V14.1813H28.8461V7.10149C28.8461 6.74064 28.6731 6.56021 28.3272 6.56021H26.3814V5.00135H28.9974C29.4731 5.00135 29.8551 5.13126 30.1433 5.39107C30.4316 5.65088 30.5757 6.03338 30.5757 6.53856V6.99323H30.6622C30.8352 6.27153 31.1595 5.71583 31.6351 5.32611C32.1252 4.9364 32.8026 4.74154 33.6674 4.74154H35.6349V6.66847H33.408C32.5288 6.66847 31.8513 6.96436 31.3757 7.55615C30.9 8.13351 30.6622 8.87686 30.6622 9.7862V14.1813H34.035V15.7402H26.1003Z" fill="#F0E1FF"/>
<path d="M17.5904 3.35589C17.0859 3.35589 16.6607 3.19711 16.3148 2.87957C15.9833 2.54759 15.8175 2.14344 15.8175 1.66712C15.8175 1.1908 15.9833 0.793866 16.3148 0.47632C16.6607 0.158773 17.0859 0 17.5904 0C18.1093 0 18.5345 0.158773 18.866 0.47632C19.2119 0.793866 19.3849 1.1908 19.3849 1.66712C19.3849 2.14344 19.2119 2.54759 18.866 2.87957C18.5345 3.19711 18.1093 3.35589 17.5904 3.35589ZM13.288 15.7402V13.7483H16.6607V7.70772C16.6607 7.2314 16.4301 6.99324 15.9689 6.99324H13.5906V5.00136H16.3797C17.2733 5.00136 17.9219 5.21065 18.3255 5.62923C18.7435 6.03338 18.9525 6.68291 18.9525 7.57781V13.7483H22.3252V15.7402H13.288Z" fill="url(#paint0_linear_6_64)"/>
<path d="M3.87002 16C3.01962 16 2.30616 15.8557 1.72962 15.567C1.15308 15.2639 0.720674 14.8669 0.432404 14.3762C0.144135 13.871 0 13.3225 0 12.7307C0 11.677 0.381957 10.8543 1.14587 10.2625C1.9242 9.67072 3.01962 9.37483 4.43214 9.37483H7.19953V9.13667C7.19953 7.52007 6.45003 6.71177 4.95103 6.71177C4.33125 6.71177 3.80516 6.84889 3.37275 7.12314C2.95476 7.38295 2.6737 7.80875 2.52956 8.40054H0.237822C0.35313 7.27469 0.835981 6.38701 1.68638 5.73748C2.55118 5.07352 3.6394 4.74154 4.95103 4.74154C6.53651 4.74154 7.68959 5.13125 8.41026 5.91069C9.13094 6.69012 9.49127 7.76545 9.49127 9.13667V15.7402H7.54545L7.35087 14.1597H7.19953C6.88243 14.6649 6.48606 15.0979 6.01042 15.4587C5.53477 15.8196 4.82131 16 3.87002 16ZM4.30242 14.0731C5.2393 14.0731 5.93835 13.7916 6.39958 13.2287C6.87523 12.6513 7.13467 11.9224 7.17791 11.0419H4.66997C3.8484 11.0419 3.26465 11.1791 2.91873 11.4533C2.58722 11.7131 2.42146 12.0812 2.42146 12.5575C2.42146 13.0338 2.58722 13.4091 2.91873 13.6834C3.26465 13.9432 3.72588 14.0731 4.30242 14.0731Z" fill="url(#paint1_linear_6_64)"/>
<defs>
<linearGradient id="paint0_linear_6_64" x1="17.8066" y1="0" x2="17.8066" y2="15.7402" gradientUnits="userSpaceOnUse">
<stop stop-color="#BA7EF4"/>
<stop offset="1" stop-color="#F444AC"/>
</linearGradient>
<linearGradient id="paint1_linear_6_64" x1="4.74564" y1="4.74154" x2="4.74564" y2="16" gradientUnits="userSpaceOnUse">
<stop stop-color="#BA7EF4"/>
<stop offset="1" stop-color="#F444AC"/>
</linearGradient>
</defs>
</svg>
