<svg width="105" height="16" viewBox="0 0 105 16" fill="none" xmlns="http://www.w3.org/2000/svg">
<path d="M14.987 15.7377V13.6244H18.4043V2.11335H15.032V0H24.1598V2.11335H20.7875V13.6244H24.2048V15.7377H14.987Z" fill="url(#paint0_linear_2_35)"/>
<path d="M0 15.7377L4.69883 0H7.53162L12.2304 15.7377H9.64497L8.58829 11.9607H3.64216L2.58548 15.7377H0ZM6.04778 3.37237L4.18173 10.0496H8.04871L6.18267 3.37237H6.04778Z" fill="url(#paint1_linear_2_35)"/>
<path d="M100.324 16C98.9 16 97.7459 15.6703 96.8616 15.0108C95.9922 14.3363 95.5051 13.4145 95.4002 12.2454H97.3562C97.4461 12.86 97.7459 13.3621 98.2555 13.7518C98.7801 14.1415 99.4845 14.3363 100.369 14.3363C101.208 14.3363 101.83 14.1564 102.235 13.7967C102.655 13.437 102.864 13.0248 102.864 12.5602C102.864 11.9307 102.617 11.5035 102.122 11.2787C101.628 11.0389 100.886 10.859 99.8967 10.7391C98.7126 10.6042 97.7309 10.282 96.9515 9.77236C96.1721 9.26276 95.7824 8.49836 95.7824 7.47915C95.7824 6.56487 96.1646 5.80796 96.929 5.20843C97.6934 4.6089 98.7351 4.30913 100.054 4.30913C101.358 4.30913 102.385 4.6089 103.134 5.20843C103.884 5.79297 104.311 6.63232 104.416 7.72646H102.55C102.505 7.18688 102.242 6.75972 101.763 6.44496C101.298 6.11522 100.714 5.95035 100.009 5.95035C99.2747 5.95035 98.7051 6.09274 98.3004 6.37752C97.8958 6.6473 97.6934 7.00702 97.6934 7.45667C97.6934 7.90632 97.9182 8.28103 98.3679 8.58079C98.8325 8.86557 99.5595 9.05293 100.549 9.14286C101.328 9.23279 102.04 9.38267 102.685 9.5925C103.329 9.80234 103.839 10.1321 104.213 10.5817C104.603 11.0314 104.798 11.6609 104.798 12.4703C104.813 13.1447 104.625 13.7518 104.236 14.2913C103.861 14.8159 103.337 15.2356 102.662 15.5503C101.988 15.8501 101.208 16 100.324 16Z" fill="#F0E1FF"/>
<path d="M86.8432 16C85.794 16 84.8647 15.7602 84.0553 15.2806C83.261 14.7859 82.6314 14.104 82.1668 13.2347C81.7022 12.3503 81.4698 11.3237 81.4698 10.1546C81.4698 8.98548 81.6947 7.96627 82.1443 7.09695C82.609 6.21264 83.246 5.53068 84.0553 5.05105C84.8647 4.55644 85.809 4.30913 86.8881 4.30913C87.9673 4.30913 88.8891 4.55644 89.6535 5.05105C90.4179 5.53068 91.0024 6.16768 91.4071 6.96206C91.8118 7.75644 92.0141 8.61077 92.0141 9.52506C92.0141 9.68993 92.0066 9.8548 91.9916 10.0197C91.9916 10.1845 91.9916 10.3719 91.9916 10.5817H83.3359C83.3809 11.4061 83.5682 12.0955 83.898 12.6501C84.2427 13.1897 84.6698 13.5944 85.1794 13.8642C85.704 14.134 86.2586 14.2689 86.8432 14.2689C87.6675 14.2689 88.312 14.0965 88.7766 13.7518C89.2413 13.407 89.5935 12.9274 89.8333 12.3129H91.6994C91.4446 13.3471 90.9125 14.2239 90.1031 14.9433C89.2937 15.6478 88.2071 16 86.8432 16ZM86.8432 5.99531C85.9738 5.99531 85.2094 6.25761 84.5499 6.7822C83.9054 7.30679 83.5083 8.04122 83.3584 8.98548H90.1481C90.0881 8.0562 89.7509 7.32927 89.1364 6.80468C88.5368 6.2651 87.7724 5.99531 86.8432 5.99531Z" fill="#F0E1FF"/>
<path d="M72.1485 15.7302L67.2473 4.57892H69.4056L73.2501 13.6618L77.1171 4.57892H79.2529L74.3293 15.7302H72.1485Z" fill="#F0E1FF"/>
<path d="M58.8252 16C57.9409 16 57.2064 15.8426 56.6219 15.5279C56.0374 15.2131 55.6027 14.8009 55.3179 14.2913C55.0331 13.7667 54.8907 13.1972 54.8907 12.5827C54.8907 11.4436 55.3029 10.5817 56.1273 9.99719C56.9666 9.39766 58.0833 9.09789 59.4772 9.09789H62.5348V8.87307C62.5348 6.92459 61.643 5.95035 59.8594 5.95035C59.1399 5.95035 58.5329 6.10773 58.0383 6.42248C57.5587 6.73723 57.2514 7.23185 57.1165 7.90632H55.183C55.258 7.15691 55.5053 6.51241 55.9249 5.97283C56.3596 5.43325 56.9142 5.02108 57.5886 4.7363C58.2631 4.45152 59.02 4.30913 59.8594 4.30913C61.4481 4.30913 62.6022 4.7288 63.3217 5.56815C64.0561 6.3925 64.4233 7.49414 64.4233 8.87307V15.7302H62.8046L62.6472 13.9991H62.4898C62.1601 14.5386 61.7179 15.0108 61.1633 15.4155C60.6238 15.8052 59.8444 16 58.8252 16ZM59.1624 14.3363C59.8818 14.3363 60.4889 14.1639 60.9835 13.8192C61.4931 13.4745 61.8753 13.0173 62.1301 12.4478C62.3999 11.8782 62.5348 11.2562 62.5348 10.5817H59.6345C58.6153 10.5817 57.8959 10.7541 57.4762 11.0988C57.0715 11.4436 56.8692 11.9007 56.8692 12.4703C56.8692 13.0548 57.064 13.5119 57.4537 13.8417C57.8434 14.1714 58.413 14.3363 59.1624 14.3363Z" fill="#F0E1FF"/>
<path d="M42.3318 15.7302L39.8588 4.57892H41.7248L43.3211 12.9199L45.2321 4.57892H47.3454L49.2564 12.9199L50.8527 4.57892H52.7412L50.2456 15.7302H48.3122L46.2887 7.07447L44.2653 15.7302H42.3318Z" fill="#F0E1FF"/>
<path d="M27.9518 15.7302V14.1115H30.8071V6.75972C30.8071 6.38501 30.6273 6.19766 30.2675 6.19766H28.2441V4.57892H30.9645C31.4591 4.57892 31.8563 4.71382 32.1561 4.9836C32.4558 5.25339 32.6057 5.65058 32.6057 6.17517V6.64731H32.6956C32.8755 5.89789 33.2127 5.32084 33.7073 4.91616C34.2169 4.51147 34.9214 4.30913 35.8207 4.30913H37.8666V6.31007H35.5509C34.6366 6.31007 33.9322 6.61733 33.4376 7.23185C32.9429 7.83138 32.6956 8.60328 32.6956 9.54754V14.1115H36.2029V15.7302H27.9518Z" fill="#F0E1FF"/>
<defs>
<linearGradient id="paint0_linear_2_35" x1="19.5959" y1="0" x2="19.5959" y2="15.7377" gradientUnits="userSpaceOnUse">
<stop stop-color="#BA7EF4"/>
<stop offset="1" stop-color="#F444AC"/>
</linearGradient>
<linearGradient id="paint1_linear_2_35" x1="6.11522" y1="0" x2="6.11522" y2="15.7377" gradientUnits="userSpaceOnUse">
<stop stop-color="#BA7EF4"/>
<stop offset="1" stop-color="#F444AC"/>
</linearGradient>
</defs>
</svg>
